<svg width="74" height="71" viewBox="0 0 74 71" fill="none" xmlns="http://www.w3.org/2000/svg">
<g clip-path="url(#clip0_411_244)">
<path d="M28.7778 57.6875C28.7778 62.5822 25.0902 66.5625 20.5556 66.5625C17.155 66.5625 14.3889 63.5768 14.3889 59.9062C14.3889 56.2357 17.155 53.25 20.5556 53.25C21.6907 53.25 22.6111 52.2566 22.6111 51.0312C22.6111 49.8059 21.6907 48.8125 20.5556 48.8125C14.8888 48.8125 10.2778 53.7896 10.2778 59.9062C10.2778 66.0229 14.8888 71 20.5556 71C27.3566 71 32.8889 65.0285 32.8889 57.6875V39.9375H28.7778V57.6875ZM53.4444 44.375C52.3093 44.375 51.3889 45.3684 51.3889 46.5938C51.3889 47.8191 52.3093 48.8125 53.4444 48.8125C56.845 48.8125 59.6111 51.7982 59.6111 55.4688C59.6111 59.1393 56.845 62.125 53.4444 62.125C48.9098 62.125 45.2222 58.1447 45.2222 53.25V39.9375H41.1111V53.25C41.1111 60.591 46.6434 66.5625 53.4444 66.5625C59.1112 66.5625 63.7222 61.5854 63.7222 55.4688C63.7222 49.3521 59.1112 44.375 53.4444 44.375ZM65.7778 0H8.22222C3.70013 0 0 3.99389 0 8.875V26.625C0 31.5061 3.70013 35.5 8.22222 35.5H65.7778C70.2999 35.5 74 31.5061 74 26.625V8.875C74 3.99389 70.2999 0 65.7778 0ZM69.8889 26.625C69.8889 29.0759 68.0484 31.0625 65.7778 31.0625H8.22222C5.9516 31.0625 4.11111 29.0759 4.11111 26.625V8.875C4.11111 6.42411 5.9516 4.4375 8.22222 4.4375H65.7778C68.0484 4.4375 69.8889 6.42411 69.8889 8.875V26.625ZM59.6111 17.75H14.3889C13.2582 17.75 12.3333 18.7483 12.3333 19.9688C12.3333 21.1892 13.2582 22.1875 14.3889 22.1875H59.6111C60.7418 22.1875 61.6667 21.1892 61.6667 19.9688C61.6667 18.7483 60.7418 17.75 59.6111 17.75Z" fill="black"/>
</g>
<defs>
<clipPath id="clip0_411_244">
<rect width="74" height="71" fill="white"/>
</clipPath>
</defs>
</svg>
