<svg width="29" height="43" viewBox="0 0 29 43" fill="none" xmlns="http://www.w3.org/2000/svg">
<g clip-path="url(#clip0_411_202)">
<path d="M28.79 14.5135C28.4761 13.8522 27.8601 13.4375 27.1876 13.4375H15.3638L19.2036 2.76359C19.4278 2.1442 19.3594 1.43823 19.0219 0.884439C18.6844 0.330647 18.1227 0 17.5209 0H4.22922C3.32063 0 2.55357 0.747965 2.43326 1.75057L0.0165975 21.9068C-0.0542411 22.4816 0.1039 23.0616 0.448426 23.4998C0.793027 23.9355 1.29101 24.1875 1.81256 24.1875H12.8622L9.70683 40.5618C9.52512 41.504 9.96881 42.4567 10.7641 42.8372C10.9954 42.9475 11.2385 43 11.4792 43C12.0622 43 12.6286 42.6851 12.9754 42.1234L28.6838 16.5921C29.0638 15.9754 29.1039 15.175 28.79 14.5135ZM15.1797 31.3997L16.8766 22.5944C16.9922 21.9987 16.8577 21.3793 16.5131 20.9042C16.1686 20.4318 15.6518 20.1562 15.1042 20.1562H3.88228L5.81516 4.03125H14.8446L11.0049 14.7052C10.7807 15.3245 10.8491 16.0305 11.1866 16.5843C11.5241 17.1381 12.0857 17.4688 12.6876 17.4688H23.7514L15.1797 31.3997Z" fill="black"/>
</g>
<defs>
<clipPath id="clip0_411_202">
<rect width="29" height="43" fill="white"/>
</clipPath>
</defs>
</svg>
