<svg width="74" height="71" viewBox="0 0 74 71" fill="none" xmlns="http://www.w3.org/2000/svg">
<g clip-path="url(#clip0_411_232)">
<path d="M74 31.0625C74 13.9019 57.4408 0 37 0C16.5592 0 0 13.9019 0 31.0625C0 47.4604 15.1551 60.877 34.3571 62.021V66.5625H13.2143C11.7548 66.5625 10.5714 67.5557 10.5714 68.7812C10.5714 70.0066 11.7548 71 13.2143 71H60.7857C62.2452 71 63.4286 70.0066 63.4286 68.7812C63.4286 67.5557 62.2452 66.5625 60.7857 66.5625H39.6429V62.021C58.8449 60.877 74 47.4604 74 31.0625ZM37 57.3408C19.7388 57.3408 5.69866 45.5537 5.69866 31.0625C5.69866 16.5713 19.7388 4.78418 37 4.78418C54.2612 4.78418 68.3013 16.5713 68.3013 31.0625C68.3013 45.5537 54.2612 57.3408 37 57.3408ZM37 29.0344C35.6786 29.0344 34.5843 29.9531 34.5843 31.0625C34.5843 32.1719 35.6786 33.0906 37 33.0906C38.3214 33.0906 39.4157 32.1719 39.4157 31.0625C39.4157 29.9531 38.3214 29.0344 37 29.0344ZM63.3047 33.7493C63.3047 29.0344 60.5173 24.6489 55.8717 22.0315C51.2054 19.3967 45.3002 18.894 40.1177 20.6794L36.6696 12.9312C35.3482 9.96704 31.0329 8.38965 27.4196 10.1404C19.3878 14.0405 16.6211 22.6729 21.2667 29.4158C22.361 30.9932 23.8064 32.3972 25.5614 33.5066L19.264 39.9202C18.0458 41.1509 17.5502 42.7629 17.9012 44.323C18.2316 45.8831 19.3878 47.2524 21.019 48.0498C23.5586 49.2805 26.4492 49.9219 29.3811 49.9219C34.1507 49.9219 40.3862 48.0671 43.9788 42.8669C45.0525 41.2896 45.7545 39.5388 46.0229 37.7188C48.067 37.9961 51.2467 38.4468 55.7891 39.0881C59.2785 39.5735 63.3047 37.4414 63.3047 33.7493ZM56.7388 34.7026C56.4911 34.7026 44.0614 32.9172 43.7104 32.9172C43.6897 32.9172 43.6897 32.9172 43.6691 32.9172C42.0173 32.9172 40.7991 34.1133 40.861 35.4827C40.9643 37.2854 40.4481 39.0881 39.3744 40.6482C36.1535 45.3284 30.4548 45.4844 29.505 45.4844C27.4403 45.5017 25.4169 45.051 23.6412 44.1843C23.0875 43.9186 22.8255 43.2301 23.3315 42.7283L31.4252 34.4773C32.7054 33.1599 31.8795 31.4785 30.4548 30.8718C28.5346 30.0398 26.9241 28.7571 25.8298 27.197C22.6501 22.5688 24.5497 16.658 30.0419 13.9712C30.4657 13.7813 31.3798 13.7421 31.7143 14.4912L36.1741 24.4756C36.4838 25.1343 37.1239 25.6543 37.9291 25.8623C38.755 26.0703 39.6222 25.9663 40.3449 25.585C43.8756 23.6956 48.3767 23.5742 52.0519 25.2729C55.7271 26.9717 58.019 30.2131 58.019 33.7493C58.019 34.252 57.5854 34.7026 56.7388 34.7026Z" fill="black"/>
</g>
<defs>
<clipPath id="clip0_411_232">
<rect width="74" height="71" fill="white"/>
</clipPath>
</defs>
</svg>
