<svg width="74" height="71" viewBox="0 0 74 71" fill="none" xmlns="http://www.w3.org/2000/svg">
<path d="M49.3285 57.6867H24.6715C22.967 57.6867 21.5857 58.6822 21.5882 59.909L21.5955 63.0142C21.5972 63.884 21.9557 64.7338 22.6251 65.458L25.9197 69.0198C26.9266 70.109 29.2383 71 31.0561 71H42.9499C44.7648 71 47.0721 70.1107 48.0773 69.0236L51.3666 65.4673C51.9357 64.8514 52.4032 63.7426 52.4045 63.0033L52.4119 59.909C52.4144 58.6822 51.033 57.6867 49.3285 57.6867ZM46.2327 63.0093L43.117 66.408C43.0252 66.4682 42.7922 66.5581 42.9499 66.5629L31.3321 66.5791C31.2504 66.5646 31.1176 66.5191 31.0625 66.5191C31.0355 66.5191 31.0272 66.5305 31.0532 66.5618L27.762 63.0071L27.7602 62.1237H46.2481L46.2489 62.8419C46.2365 62.9042 46.188 63.0244 46.2105 63.0244C46.2145 63.0244 46.2219 63.0196 46.2327 63.0093ZM60.8536 7.11345C54.4311 2.50732 45.7804 -0.157396 36.8917 0.00720801C18.2501 0.0461748 3.08334 11.0782 3.08334 24.5973C3.08334 30.5466 6.06435 36.2922 11.4752 40.7683C14.0436 42.8915 18.3826 47.6449 19.9031 51.3105C20.1109 52.5152 21.6074 53.3385 23.3027 53.2128C24.9798 53.0785 26.1902 51.9692 26.0216 50.7646L25.9042 50.3053C23.9168 45.4566 18.9667 40.205 16.1272 37.8564C11.692 34.1864 9.25001 29.4764 9.25001 24.5973C9.25001 13.3314 21.3997 4.47896 36.9096 4.44429H37C44.347 4.44429 51.2695 6.50676 56.4998 10.2592C61.8203 14.0723 64.75 19.1679 64.75 24.5973C64.75 29.4764 62.308 34.1864 57.8757 37.8564C55.0333 40.205 50.0832 45.4566 48.0958 50.3053L47.9753 50.769C47.7736 51.9823 48.9269 53.2085 50.61 53.3601C50.7605 53.3731 50.9051 53.3817 51.0496 53.3817C52.5521 53.3817 53.8169 52.6712 54.0096 51.5619C55.6174 47.6449 59.9564 42.8915 62.5279 40.7683C67.9357 36.2922 70.9167 30.5466 70.9167 24.5973C70.9167 17.9807 67.3425 11.7714 60.8536 7.11345ZM40.0833 11.0998C40.0833 9.87357 38.7043 8.88124 37 8.88124C25.1003 8.88124 15.4167 15.8462 15.4167 24.4099C15.4167 25.6361 16.7957 26.6285 18.5 26.6285C20.2043 26.6285 21.5833 25.6361 21.5833 24.4099C21.5833 18.2943 28.4968 13.3178 37 13.3178C38.7043 13.3178 40.0833 12.3261 40.0833 11.0998Z" fill="black"/>
</svg>
