<svg width="29" height="41" viewBox="0 0 29 41" fill="none" xmlns="http://www.w3.org/2000/svg">
<path d="M26.6737 26.0263C26.2791 25.4708 25.3574 25.2599 24.6152 25.555C23.8728 25.8502 23.5909 26.5398 23.9854 27.0951C24.7899 28.2277 25.2152 29.5098 25.2152 30.8025C25.2152 32.9534 24.0823 34.9657 22.0252 36.4688C19.9691 37.9713 17.2502 38.7693 14.3729 38.7198C8.67028 38.6191 4.0369 35.0624 4.04452 30.7916C4.04985 27.7783 6.29438 25.0674 9.90183 23.7168C10.4174 23.5239 10.7428 23.1296 10.7428 22.6983V5.59813C10.7428 4.31867 12.1341 3.27773 13.8443 3.27773H15.4152C17.1253 3.27773 18.5166 4.31867 18.5166 5.59813V21.9884C18.5166 22.6174 19.1982 23.1273 20.0388 23.1273C20.8794 23.1273 21.5611 22.6175 21.5611 21.9884V20.6244H25.2246C26.0652 20.6244 26.7469 20.1145 26.7469 19.4855C26.7469 18.8564 26.0652 18.3466 25.2246 18.3466H21.5611V16.5737H23.0011C23.8417 16.5737 24.5233 16.0638 24.5233 15.4348C24.5233 14.8058 23.8417 14.2959 23.0011 14.2959H21.5611V12.523H25.2246C26.0652 12.523 26.7469 12.0131 26.7469 11.3841C26.7469 10.755 26.0652 10.2452 25.2246 10.2452H21.5611V8.47234H23.0011C23.8417 8.47234 24.5233 7.9625 24.5233 7.33344C24.5233 6.70438 23.8417 6.19453 23.0011 6.19453H21.5611V5.59813C21.5611 3.06273 18.8042 1 15.4153 1H13.8444C10.4556 1 7.69854 3.06273 7.69854 5.59813V22.0223C3.54956 23.8516 1.00659 27.1485 1.00001 30.7887C0.990092 36.2877 6.95693 40.8673 14.3009 40.997C14.4122 40.9991 14.5227 41 14.6337 41C18.2148 40.9999 21.5843 39.975 24.1524 38.0984C26.8011 36.163 28.2596 33.572 28.2596 30.8024C28.2596 29.1384 27.7112 27.4867 26.6737 26.0263Z" fill="#9897AD" stroke="#9897AD" stroke-width="0.2"/>
</svg>
