<svg width="54" height="54" viewBox="0 0 54 54" fill="none" xmlns="http://www.w3.org/2000/svg">
<g clip-path="url(#clip0_414_257)">
<path d="M27 27C35.5213 27 42.4286 20.9557 42.4286 13.5C42.4286 6.04431 35.5213 0 27 0C18.4796 0 11.5714 6.04431 11.5714 13.5C11.5714 20.9557 18.4796 27 27 27ZM27 3.375C33.3807 3.375 38.5714 7.91691 38.5714 13.5C38.5714 19.0829 33.3807 23.625 27 23.625C20.6193 23.625 15.4286 19.0829 15.4286 13.5C15.4286 7.91691 20.6193 3.375 27 3.375ZM33.1068 32.0625H20.8932C9.35466 32.0625 0 40.2471 0 50.3436C0 52.3628 1.87108 54 4.17825 54H49.8218C52.1289 54 54 52.3628 54 50.3436C54 40.2471 44.6462 32.0625 33.1068 32.0625ZM49.8218 50.625H4.17825C4.00118 50.625 3.85714 50.4988 3.85714 50.3436C3.85714 42.1242 11.4993 35.4375 20.8932 35.4375H33.1068C42.5007 35.4375 50.1429 42.1242 50.1429 50.3436C50.1429 50.4988 49.9988 50.625 49.8218 50.625Z" fill="black"/>
</g>
<defs>
<clipPath id="clip0_414_257">
<rect width="54" height="54" fill="white"/>
</clipPath>
</defs>
</svg>
